REM DIRINDEX 1\2,1\3\7,1\3\8,1\4\9,1\4\10,1\4\11,1\5\12,1\5\13,1\5\14,1\6\15,1\6\16,1\6\17
REM DIRNAME "folder01","folder02","folder03","folder04","folder05","folder06","folder07","folder08","folder09","folder10","folder11","folder12","folder13","folder14","folder15","folder16","folder17"
TITLE ""
FILE "2Q_t_0453-0469.mp3" MP3
  TRACK 01 AUDIO
    TITLE "0:"
    INDEX 01 00:00:00
  TRACK 02 AUDIO
    TITLE "7:cjc174_2657"
    INDEX 01 00:00:08
  TRACK 03 AUDIO
    TITLE "0:"
    INDEX 01 00:01:18
  TRACK 04 AUDIO
    TITLE "8:cjc174_2658"
    INDEX 01 00:01:67
  TRACK 05 AUDIO
    TITLE "0:"
    INDEX 01 00:02:58
  TRACK 06 AUDIO
    TITLE "7:cjc174_2659"
    INDEX 01 00:03:28
  TRACK 07 AUDIO
    TITLE "0:"
    INDEX 01 00:04:49
  TRACK 08 AUDIO
    TITLE "8:cjc174_2660"
    INDEX 01 00:05:21
  TRACK 09 AUDIO
    TITLE "0:"
    INDEX 01 00:06:34
  TRACK 10 AUDIO
    TITLE "7:cjc174_2661"
    INDEX 01 00:07:03
  TRACK 11 AUDIO
    TITLE "0:"
    INDEX 01 00:08:18
  TRACK 12 AUDIO
    TITLE "8:cjc174_2662"
    INDEX 01 00:08:69
  TRACK 13 AUDIO
    TITLE "0:"
    INDEX 01 00:11:10
  TRACK 14 AUDIO
    TITLE "7:cjc174_2663"
    INDEX 01 00:11:55
  TRACK 15 AUDIO
    TITLE "0:"
    INDEX 01 00:13:21
  TRACK 16 AUDIO
    TITLE "8:cjc174_2664"
    INDEX 01 00:13:70
  TRACK 17 AUDIO
    TITLE "0:"
    INDEX 01 00:15:37
  TRACK 18 AUDIO
    TITLE "7:cjc174_2665"
    INDEX 01 00:16:07
  TRACK 19 AUDIO
    TITLE "0:"
    INDEX 01 00:17:19
  TRACK 20 AUDIO
    TITLE "8:cjc174_2666"
    INDEX 01 00:17:66
  TRACK 21 AUDIO
    TITLE "0:"
    INDEX 01 00:19:72
  TRACK 22 AUDIO
    TITLE "7:cjc174_2667"
    INDEX 01 00:20:42
  TRACK 23 AUDIO
    TITLE "0:"
    INDEX 01 00:21:52
  TRACK 24 AUDIO
    TITLE "8:cjc174_2668"
    INDEX 01 00:22:22
  TRACK 25 AUDIO
    TITLE "0:"
    INDEX 01 00:24:25
  TRACK 26 AUDIO
    TITLE "7:cjc174_2669"
    INDEX 01 00:24:70
  TRACK 27 AUDIO
    TITLE "0:"
    INDEX 01 00:26:06
  TRACK 28 AUDIO
    TITLE "8:cjc174_2670"
    INDEX 01 00:26:57
  TRACK 29 AUDIO
    TITLE "0:"
    INDEX 01 00:28:14
  TRACK 30 AUDIO
    TITLE "7:cjc174_2671"
    INDEX 01 00:28:60
  TRACK 31 AUDIO
    TITLE "0:"
    INDEX 01 00:30:33
  TRACK 32 AUDIO
    TITLE "8:cjc174_2672"
    INDEX 01 00:31:01
  TRACK 33 AUDIO
    TITLE "0:"
    INDEX 01 00:33:37
  TRACK 34 AUDIO
    TITLE "7:cjc174_2673"
    INDEX 01 00:34:05
  TRACK 35 AUDIO
    TITLE "0:"
    INDEX 01 00:35:11
  TRACK 36 AUDIO
    TITLE "8:cjc174_2674"
    INDEX 01 00:35:65
  TRACK 37 AUDIO
    TITLE "0:"
    INDEX 01 00:37:72
  TRACK 38 AUDIO
    TITLE "7:cjc174_2675"
    INDEX 01 00:38:42
  TRACK 39 AUDIO
    TITLE "0:"
    INDEX 01 00:39:59
  TRACK 40 AUDIO
    TITLE "8:cjc174_2676"
    INDEX 01 00:40:35
  TRACK 41 AUDIO
    TITLE "0:"
    INDEX 01 00:42:62
  TRACK 42 AUDIO
    TITLE "7:cjc174_2677"
    INDEX 01 00:43:30
  TRACK 43 AUDIO
    TITLE "0:"
    INDEX 01 00:44:33
  TRACK 44 AUDIO
    TITLE "8:cjc174_2678"
    INDEX 01 00:45:09
  TRACK 45 AUDIO
    TITLE "0:"
    INDEX 01 00:48:35
  TRACK 46 AUDIO
    TITLE "7:cjc174_2679"
    INDEX 01 00:49:05
  TRACK 47 AUDIO
    TITLE "0:"
    INDEX 01 00:50:20
  TRACK 48 AUDIO
    TITLE "8:cjc174_2680"
    INDEX 01 00:50:65
  TRACK 49 AUDIO
    TITLE "0:"
    INDEX 01 00:53:10
  TRACK 50 AUDIO
    TITLE "7:cjc174_2681"
    INDEX 01 00:53:54
  TRACK 51 AUDIO
    TITLE "0:"
    INDEX 01 00:54:73
  TRACK 52 AUDIO
    TITLE "8:cjc174_2682"
    INDEX 01 00:55:47
  TRACK 53 AUDIO
    TITLE "0:"
    INDEX 01 00:58:02
  TRACK 54 AUDIO
    TITLE "7:cjc174_2683"
    INDEX 01 00:58:45
  TRACK 55 AUDIO
    TITLE "0:"
    INDEX 01 00:59:68
  TRACK 56 AUDIO
    TITLE "8:cjc174_2684"
    INDEX 01 01:00:38
  TRACK 57 AUDIO
    TITLE "0:"
    INDEX 01 01:03:50
  TRACK 58 AUDIO
    TITLE "7:cjc174_2685"
    INDEX 01 01:04:20
  TRACK 59 AUDIO
    TITLE "0:"
    INDEX 01 01:05:49
  TRACK 60 AUDIO
    TITLE "8:cjc174_2686"
    INDEX 01 01:06:23
  TRACK 61 AUDIO
    TITLE "0:"
    INDEX 01 01:08:34
  TRACK 62 AUDIO
    TITLE "2:cjc174_2687"
    INDEX 01 01:09:04
  TRACK 63 AUDIO
    TITLE "0:"
    INDEX 01 01:10:25
  TRACK 64 AUDIO
    TITLE "7:cjc174_2688"
    INDEX 01 01:10:72
  TRACK 65 AUDIO
    TITLE "0:"
    INDEX 01 01:12:10
  TRACK 66 AUDIO
    TITLE "8:cjc174_2689"
    INDEX 01 01:12:59
  TRACK 67 AUDIO
    TITLE "0:"
    INDEX 01 01:14:20
  TRACK 68 AUDIO
    TITLE "7:cjc174_2690"
    INDEX 01 01:14:66
  TRACK 69 AUDIO
    TITLE "0:"
    INDEX 01 01:16:13
  TRACK 70 AUDIO
    TITLE "8:cjc174_2691"
    INDEX 01 01:16:66
  TRACK 71 AUDIO
    TITLE "0:"
    INDEX 01 01:18:40
